<svg width="18" height="18" viewBox="0 0 18 18" fill="none" xmlns="http://www.w3.org/2000/svg">
<path d="M15.5 9C15.5 10.7239 14.8152 12.3772 13.5962 13.5962C12.3772 14.8152 10.7239 15.5 9 15.5C7.27609 15.5 5.62279 14.8152 4.40381 13.5962C3.18482 12.3772 2.5 10.7239 2.5 9C2.5 7.27609 3.18482 5.62279 4.40381 4.40381C5.62279 3.18482 7.27609 2.5 9 2.5C10.7239 2.5 12.3772 3.18482 13.5962 4.40381C14.8152 5.62279 15.5 7.27609 15.5 9ZM1 9C1 11.1217 1.84285 13.1566 3.34315 14.6569C4.84344 16.1571 6.87827 17 9 17C11.1217 17 13.1566 16.1571 14.6569 14.6569C16.1571 13.1566 17 11.1217 17 9C17 6.87827 16.1571 4.84344 14.6569 3.34315C13.1566 1.84285 11.1217 1 9 1C6.87827 1 4.84344 1.84285 3.34315 3.34315C1.84285 4.84344 1 6.87827 1 9ZM8.25 4.75V9C8.25 9.25 8.375 9.48438 8.58437 9.625L11.5844 11.625C11.9281 11.8563 12.3937 11.7625 12.625 11.4156C12.8563 11.0687 12.7625 10.6063 12.4156 10.375L9.75 8.6V4.75C9.75 4.33437 9.41563 4 9 4C8.58437 4 8.25 4.33437 8.25 4.75Z" fill="#FE9B19" stroke="#FE9B19" stroke-width="0.5"/>
</svg>
