<svg width="18" height="18" viewBox="0 0 18 18" fill="none" xmlns="http://www.w3.org/2000/svg">
<path d="M16.3323 12.0229L14.9036 10.5942C14.4778 10.1718 13.9029 9.93357 13.3031 9.93102C12.7032 9.92847 12.1264 10.1618 11.6969 10.5806C11.4677 10.811 11.1654 10.9544 10.842 10.9861C10.5185 11.0177 10.1942 10.9356 9.92469 10.754C8.8611 10.0441 7.94739 9.13221 7.23552 8.07C7.05704 7.79752 6.97793 7.47185 7.01153 7.14786C7.04512 6.82386 7.18936 6.52135 7.41995 6.29129C7.83498 5.86143 8.06525 5.28619 8.06149 4.68869C8.05773 4.09118 7.82023 3.51889 7.39982 3.09429L5.97114 1.66561C5.54341 1.23935 4.96416 1 4.3603 1C3.75644 1 3.17719 1.23935 2.74946 1.66561L2.33839 2.07733C0.19537 4.22035 0.355772 8.72589 4.81456 13.1821C7.50307 15.8712 10.2091 16.9973 12.4034 16.9973C13.0494 17.0188 13.6931 16.9115 14.2972 16.6818C14.9013 16.452 15.4536 16.1043 15.9219 15.6589L16.3336 15.2472C16.7607 14.8192 17.0004 14.2393 17.0001 13.6348C16.9999 13.0302 16.7597 12.4505 16.3323 12.0229ZM15.4141 14.3289L15.0023 14.7406C13.3139 16.4291 9.587 16.1206 5.73151 12.2645C1.87602 8.40833 1.5669 4.67883 3.25535 2.99039L3.66382 2.57932C3.84773 2.39607 4.09678 2.29317 4.3564 2.29317C4.61603 2.29317 4.86507 2.39607 5.04899 2.57932L6.47767 4.008C6.65824 4.18948 6.76074 4.43434 6.76329 4.69034C6.76584 4.94634 6.66823 5.19319 6.49131 5.37823C6.05249 5.81984 5.77877 6.39884 5.71599 7.01823C5.65321 7.63761 5.80519 8.25976 6.14648 8.78044C6.95533 9.99086 7.99548 11.0295 9.2071 11.8365C9.72622 12.1778 10.3467 12.3307 10.965 12.2696C11.5833 12.2085 12.1619 11.9371 12.6041 11.5008C12.7888 11.3218 13.0363 11.2224 13.2936 11.2239C13.5508 11.2255 13.7971 11.3279 13.9795 11.5092L15.4082 12.9379C15.5003 13.0286 15.5735 13.1367 15.6237 13.2559C15.6738 13.375 15.6999 13.5029 15.7005 13.6322C15.701 13.7615 15.676 13.8896 15.6269 14.0092C15.5777 14.1287 15.5054 14.2374 15.4141 14.3289Z" fill="#FE9B19" stroke="#FE9B19" stroke-width="0.5"/>
</svg>
