<svg width="21" height="22" viewBox="0 0 21 22" fill="none" xmlns="http://www.w3.org/2000/svg">
<path id="Vector" d="M6.1949 9.0051L4.725 10.475L9.45 15.2L19.95 4.7L18.4801 3.2301L9.45 12.2074L6.1949 9.0051ZM18.9 11C18.9 15.6199 15.1198 19.4 10.5 19.4C5.88015 19.4 2.1 15.6199 2.1 11C2.1 6.3801 5.8801 2.6 10.5 2.6C11.2875 2.6 12.075 2.7051 12.8102 2.91505L14.4375 1.2875C13.2301 0.7625 11.9176 0.5 10.5 0.5C4.725 0.5 0 5.225 0 11C0 16.775 4.725 21.5 10.5 21.5C16.275 21.5 21 16.775 21 11H18.9Z" fill="#C02810"/>
</svg>
